<svg width="22" height="22" viewBox="0 0 22 22" fill="none" xmlns="http://www.w3.org/2000/svg">
<path d="M20.75 2.75H17.9328C17.8831 2.75 17.8354 2.73025 17.8002 2.69508C17.7651 2.65992 17.7453 2.61223 17.7453 2.5625C17.7453 2.33328 17.7453 2.14062 17.7453 1.99625C17.7443 1.59908 17.5858 1.21851 17.3046 0.938013C17.0235 0.657519 16.6425 0.499999 16.2453 0.5V0.5L5.75516 0.512187C5.35839 0.51293 4.97807 0.670844 4.69747 0.951359C4.41687 1.23187 4.25884 1.61214 4.25797 2.00891C4.25797 2.16031 4.25797 2.34734 4.25797 2.5625C4.25797 2.61223 4.23821 2.65992 4.20305 2.69508C4.16789 2.73025 4.1202 2.75 4.07047 2.75H1.25C1.05109 2.75 0.860322 2.82902 0.71967 2.96967C0.579018 3.11032 0.5 3.30109 0.5 3.5V4.25C0.5 6.80609 1.90625 9.52109 4.08687 10.1258C4.15136 10.1437 4.20969 10.179 4.25555 10.2278C4.30141 10.2765 4.33305 10.3369 4.34703 10.4023C4.6175 11.6628 5.44953 12.8633 6.75687 13.8528C7.73703 14.5948 8.90609 15.1419 9.95703 15.3753C10.0401 15.3939 10.1144 15.4403 10.1676 15.5067C10.2209 15.5732 10.2499 15.6558 10.25 15.7409V19.8125C10.25 19.8622 10.2302 19.9099 10.1951 19.9451C10.1599 19.9802 10.1122 20 10.0625 20H7.27109C6.8675 20 6.52109 20.3103 6.50094 20.7139C6.49605 20.8153 6.51181 20.9167 6.54724 21.0118C6.58268 21.1069 6.63707 21.1939 6.7071 21.2674C6.77714 21.3409 6.86137 21.3994 6.95469 21.4394C7.04801 21.4794 7.14848 21.5 7.25 21.5H14.7289C15.1325 21.5 15.4789 21.1897 15.4991 20.7861C15.5039 20.6847 15.4882 20.5833 15.4528 20.4882C15.4173 20.3931 15.3629 20.3061 15.2929 20.2326C15.2229 20.1591 15.1386 20.1006 15.0453 20.0606C14.952 20.0206 14.8515 20 14.75 20H11.9375C11.8878 20 11.8401 19.9802 11.8049 19.9451C11.7698 19.9099 11.75 19.8622 11.75 19.8125V15.7409C11.7501 15.6558 11.7791 15.5732 11.8324 15.5067C11.8856 15.4403 11.9599 15.3939 12.043 15.3753C13.0939 15.1409 14.263 14.5948 15.2431 13.8528C16.5505 12.8633 17.3825 11.6628 17.653 10.4023C17.6669 10.3369 17.6986 10.2765 17.7444 10.2278C17.7903 10.179 17.8486 10.1437 17.9131 10.1258C20.0938 9.52109 21.5 6.80609 21.5 4.25V3.5C21.5 3.30109 21.421 3.11032 21.2803 2.96967C21.1397 2.82902 20.9489 2.75 20.75 2.75ZM4.25 8.29156C4.24988 8.32442 4.24114 8.35667 4.22463 8.38508C4.20813 8.41349 4.18445 8.43707 4.15596 8.45345C4.12748 8.46983 4.09519 8.47843 4.06234 8.4784C4.02948 8.47837 3.99721 8.46971 3.96875 8.45328C3.48781 8.16687 3.13672 7.73281 2.93094 7.42719C2.37266 6.59797 2.04031 5.52078 2.00328 4.44453C2.00234 4.41932 2.00649 4.39418 2.01548 4.37062C2.02448 4.34705 2.03814 4.32554 2.05565 4.30738C2.07316 4.28922 2.09415 4.27477 2.11737 4.26491C2.14059 4.25505 2.16556 4.24998 2.19078 4.25H4.06578C4.11551 4.25 4.1632 4.26975 4.19836 4.30492C4.23353 4.34008 4.25328 4.38777 4.25328 4.4375C4.25234 5.72422 4.25 7.19703 4.25 8.29156ZM19.0686 7.42719C18.8628 7.73281 18.5122 8.16687 18.0312 8.45328C18.0028 8.46973 17.9704 8.47839 17.9375 8.4784C17.9047 8.47841 17.8723 8.46976 17.8438 8.45333C17.8153 8.4369 17.7917 8.41325 17.7752 8.38478C17.7587 8.3563 17.75 8.32399 17.75 8.29109C17.75 7.04844 17.75 5.63656 17.7477 4.4375C17.7477 4.38777 17.7674 4.34008 17.8026 4.30492C17.8377 4.26975 17.8854 4.25 17.9352 4.25H19.8102C19.8354 4.24998 19.8604 4.25505 19.8836 4.26491C19.9068 4.27477 19.9278 4.28922 19.9453 4.30738C19.9628 4.32554 19.9765 4.34705 19.9855 4.37062C19.9945 4.39418 19.9986 4.41932 19.9977 4.44453C19.9606 5.52078 19.6273 6.59797 19.0691 7.42719H19.0686Z" fill="#F9FAFB"/>
</svg>
