<svg width="248" height="36" viewBox="0 0 248 36" fill="none" xmlns="http://www.w3.org/2000/svg">
<path d="M0 20.5718L0 10.2861L8.5714 15.3685L0 20.5718Z" fill="white"/>
<path d="M8.57031 15.4292V5.14355L17.7131 10.2259L8.57031 15.4292Z" fill="#6B7280"/>
<path d="M17.7148 20.5718V10.2861L8.57202 15.3685L17.7148 20.5718Z" fill="#D1D5DB"/>
<path d="M8.57031 15.4292V5.14355L-0.00108433 10.2259L8.57031 15.4292Z" fill="#D1D5DB"/>
<path d="M17.7148 10.2857V0L8.57202 5.08234L17.7148 10.2857Z" fill="#374151"/>
<path d="M34.8555 20.5718V10.2861L26.2841 15.3685L34.8555 20.5718Z" fill="#D1D5DB"/>
<path d="M26.2852 15.4292V5.14355L17.7138 10.2259L26.2852 15.4292Z" fill="#F3F3F3"/>
<path d="M17.7148 20.5718V10.2861L26.2862 15.3685L17.7148 20.5718Z" fill="#374151"/>
<path d="M26.2852 15.4292V5.14355L34.8566 10.2259L26.2852 15.4292Z" fill="#374151"/>
<path d="M17.7148 10.2857V0L26.2862 5.08234L17.7148 10.2857Z" fill="#D1D5DB"/>
<path d="M8.57031 20.5717V30.8574L17.7131 25.7751L8.57031 20.5717Z" fill="#6B7280"/>
<path d="M8.57031 20.5717V30.8574L-0.00108433 25.7751L8.57031 20.5717Z" fill="white"/>
<path d="M17.7148 25.1429V36L8.57202 30.6353L17.7148 25.1429Z" fill="#D1D5DB"/>
<path d="M26.2852 20.5717V30.8574L17.7138 25.7751L26.2852 20.5717Z" fill="#6B7280"/>
<path d="M26.2852 20.5717V30.8574L34.8566 25.7751L26.2852 20.5717Z" fill="white"/>
<path d="M17.7148 25.1429V36L26.2862 30.6353L17.7148 25.1429Z" fill="#374151"/>
<path d="M46.992 9.912H54.096C55.888 9.912 57.28 10.352 58.272 11.232C59.28 12.096 59.784 13.28 59.784 14.784C59.784 16.288 59.272 17.48 58.248 18.36C57.24 19.224 55.856 19.656 54.096 19.656H49.464V27H46.992V9.912ZM53.808 17.688C54.992 17.688 55.88 17.44 56.472 16.944C57.08 16.448 57.384 15.728 57.384 14.784C57.384 13.856 57.08 13.144 56.472 12.648C55.88 12.152 54.992 11.904 53.808 11.904H49.464V17.688H53.808ZM76.0129 27H73.3969L71.2609 21.312C71.0369 20.704 70.7089 20.288 70.2769 20.064C69.8449 19.824 69.2529 19.704 68.5009 19.704H64.7569V27H62.3089V9.912H69.3409C71.2129 9.912 72.6449 10.328 73.6369 11.16C74.6449 11.992 75.1489 13.184 75.1489 14.736C75.1489 15.856 74.8529 16.808 74.2609 17.592C73.6689 18.376 72.8289 18.928 71.7409 19.248C72.7329 19.424 73.4529 20.128 73.9009 21.36L76.0129 27ZM69.0529 17.712C70.3009 17.712 71.2289 17.472 71.8369 16.992C72.4449 16.496 72.7489 15.76 72.7489 14.784C72.7489 13.808 72.4449 13.088 71.8369 12.624C71.2449 12.144 70.3169 11.904 69.0529 11.904H64.7569V17.712H69.0529ZM85.7901 27.192C84.1741 27.192 82.7661 26.84 81.5661 26.136C80.3821 25.416 79.4621 24.4 78.8061 23.088C78.1661 21.776 77.8461 20.232 77.8461 18.456C77.8461 16.664 78.1661 15.112 78.8061 13.8C79.4461 12.488 80.3661 11.48 81.5661 10.776C82.7661 10.072 84.1741 9.72 85.7901 9.72C87.4221 9.72 88.8301 10.072 90.0141 10.776C91.2141 11.48 92.1341 12.488 92.7741 13.8C93.4141 15.112 93.7341 16.656 93.7341 18.432C93.7341 20.224 93.4141 21.776 92.7741 23.088C92.1341 24.4 91.2141 25.416 90.0141 26.136C88.8141 26.84 87.4061 27.192 85.7901 27.192ZM85.7901 25.176C87.5021 25.176 88.8301 24.592 89.7741 23.424C90.7341 22.256 91.2141 20.592 91.2141 18.432C91.2141 16.288 90.7341 14.64 89.7741 13.488C88.8301 12.32 87.5021 11.736 85.7901 11.736C84.0781 11.736 82.7501 12.32 81.8061 13.488C80.8621 14.64 80.3901 16.288 80.3901 18.432C80.3901 20.592 80.8621 22.256 81.8061 23.424C82.7661 24.592 84.0941 25.176 85.7901 25.176ZM93.7843 29.184C94.4083 29.296 94.9843 29.352 95.5123 29.352C96.3283 29.352 96.8883 29.144 97.1923 28.728C97.4963 28.312 97.6483 27.576 97.6483 26.52V9.912H100.144V26.544C100.144 28.256 99.8243 29.504 99.1843 30.288C98.5443 31.072 97.4723 31.464 95.9683 31.464C95.2323 31.464 94.5043 31.4 93.7843 31.272V29.184ZM103.642 9.912H114.73V11.928H106.09V17.304H114.25V19.32H106.09V24.984H114.73V27H103.642V9.912ZM124.784 27.192C123.136 27.192 121.696 26.84 120.464 26.136C119.248 25.416 118.312 24.4 117.656 23.088C117 21.776 116.672 20.224 116.672 18.432C116.672 16.656 117 15.112 117.656 13.8C118.312 12.488 119.248 11.48 120.464 10.776C121.696 10.072 123.136 9.72 124.784 9.72C125.952 9.72 127.032 9.904 128.024 10.272C129.032 10.624 129.88 11.144 130.568 11.832L129.704 13.656C128.904 13 128.112 12.528 127.328 12.24C126.56 11.936 125.72 11.784 124.808 11.784C123.032 11.784 121.656 12.36 120.68 13.512C119.72 14.664 119.24 16.304 119.24 18.432C119.24 20.576 119.72 22.232 120.68 23.4C121.656 24.552 123.032 25.128 124.808 25.128C125.72 25.128 126.56 24.984 127.328 24.696C128.112 24.392 128.904 23.912 129.704 23.256L130.568 25.08C129.88 25.768 129.032 26.296 128.024 26.664C127.032 27.016 125.952 27.192 124.784 27.192ZM137.044 11.976H131.26V9.912H145.324V11.976H139.54V27H137.044V11.976ZM169.418 9.912V27H167.186V15.264L162.122 27H160.418L155.282 15.336L155.306 27H153.074V9.912H155.066L161.282 24.024L167.426 9.912H169.418ZM184.17 22.776H175.53L173.706 27H171.186L178.794 9.912H180.882L188.514 27H185.994L184.17 22.776ZM183.33 20.808L179.85 12.672L176.37 20.808H183.33ZM203.951 27H201.335L199.199 21.312C198.975 20.704 198.647 20.288 198.215 20.064C197.783 19.824 197.191 19.704 196.439 19.704H192.695V27H190.247V9.912H197.279C199.151 9.912 200.583 10.328 201.575 11.16C202.583 11.992 203.087 13.184 203.087 14.736C203.087 15.856 202.791 16.808 202.199 17.592C201.607 18.376 200.767 18.928 199.679 19.248C200.671 19.424 201.391 20.128 201.839 21.36L203.951 27ZM196.991 17.712C198.239 17.712 199.167 17.472 199.775 16.992C200.383 16.496 200.687 15.76 200.687 14.784C200.687 13.808 200.383 13.088 199.775 12.624C199.183 12.144 198.255 11.904 196.991 11.904H192.695V17.712H196.991ZM217.397 27L208.973 18.936V27H206.501V9.912H208.973V17.688L217.037 9.912H220.085L211.469 18.168L220.517 27H217.397ZM221.584 9.912H232.672V11.928H224.032V17.304H232.192V19.32H224.032V24.984H232.672V27H221.584V9.912ZM239.223 11.976H233.439V9.912H247.503V11.976H241.719V27H239.223V11.976Z" fill="white"/>
</svg>
