<svg width="40" height="40" viewBox="0 0 40 40" fill="none" xmlns="http://www.w3.org/2000/svg">
<path d="M11.6665 25C14.4279 25 16.6665 22.7614 16.6665 20C16.6665 17.2386 14.4279 15 11.6665 15C8.90508 15 6.6665 17.2386 6.6665 20C6.6665 22.7614 8.90508 25 11.6665 25Z" stroke="white" stroke-width="2" stroke-linecap="round" stroke-linejoin="round"/>
<path d="M28.3335 16.6666C31.0949 16.6666 33.3335 14.428 33.3335 11.6666C33.3335 8.9052 31.0949 6.66663 28.3335 6.66663C25.5721 6.66663 23.3335 8.9052 23.3335 11.6666C23.3335 14.428 25.5721 16.6666 28.3335 16.6666Z" stroke="white" stroke-width="2" stroke-linecap="round" stroke-linejoin="round"/>
<path d="M28.3335 33.3334C31.0949 33.3334 33.3335 31.0948 33.3335 28.3334C33.3335 25.5719 31.0949 23.3334 28.3335 23.3334C25.5721 23.3334 23.3335 25.5719 23.3335 28.3334C23.3335 31.0948 25.5721 33.3334 28.3335 33.3334Z" stroke="white" stroke-width="2" stroke-linecap="round" stroke-linejoin="round"/>
<path d="M16.6665 20H21.6665L24.9998 15.8334" stroke="white" stroke-width="2" stroke-linecap="round" stroke-linejoin="round"/>
<path d="M24.9998 24.1667L21.6665 20" stroke="white" stroke-width="2" stroke-linecap="round" stroke-linejoin="round"/>
</svg>
