<svg width="40" height="40" viewBox="0 0 40 40" fill="none" xmlns="http://www.w3.org/2000/svg">
<path d="M6.6665 35C8.57817 28.3 9.9715 21.6217 9.99984 15H19.9998C20.0282 21.6217 21.4215 28.3 23.3332 35" stroke="white" stroke-width="2" stroke-linecap="round" stroke-linejoin="round"/>
<path d="M20.8335 21.6666H28.3335C28.3752 26.02 29.8235 30.4933 31.6668 35" stroke="white" stroke-width="2" stroke-linecap="round" stroke-linejoin="round"/>
<path d="M15 8.33332C15.3786 7.80583 15.88 7.37844 16.4607 7.08806C17.0415 6.79769 17.6842 6.65305 18.3333 6.66665C18.9825 6.65305 19.6252 6.79769 20.206 7.08806C20.7867 7.37844 21.288 7.80583 21.6667 8.33332C22.0453 8.8608 22.5466 9.28819 23.1274 9.57857C23.7081 9.86895 24.3508 10.0136 25 9.99998C25.6492 10.0136 26.2919 9.86895 26.8726 9.57857C27.4534 9.28819 27.9547 8.8608 28.3333 8.33332C28.712 7.80583 29.2133 7.37844 29.794 7.08806C30.3748 6.79769 31.0175 6.65305 31.6667 6.66665C32.3158 6.65305 32.9585 6.79769 33.5393 7.08806C34.12 7.37844 34.6214 7.80583 35 8.33332" stroke="white" stroke-width="2" stroke-linecap="round" stroke-linejoin="round"/>
<path d="M5 35H36.6667" stroke="white" stroke-width="2" stroke-linecap="round" stroke-linejoin="round"/>
</svg>
