<svg width="40" height="40" viewBox="0 0 40 40" fill="none" xmlns="http://www.w3.org/2000/svg">
<path d="M10 6.66663H8.33333C7.44928 6.66663 6.60143 7.01782 5.97631 7.64294C5.35119 8.26806 5 9.1159 5 9.99996V15.8333C5 18.2644 5.96577 20.596 7.68485 22.3151C9.40394 24.0342 11.7355 25 14.1667 25C16.5978 25 18.9294 24.0342 20.6485 22.3151C22.3676 20.596 23.3333 18.2644 23.3333 15.8333V9.99996C23.3333 9.1159 22.9821 8.26806 22.357 7.64294C21.7319 7.01782 20.8841 6.66663 20 6.66663H18.3333" stroke="white" stroke-width="2" stroke-linecap="round" stroke-linejoin="round"/>
<path d="M13.3333 25C13.3333 26.3132 13.5919 27.6136 14.0945 28.8268C14.597 30.0401 15.3336 31.1425 16.2622 32.0711C17.1908 32.9997 18.2932 33.7362 19.5064 34.2388C20.7197 34.7413 22.02 35 23.3333 35C24.6465 35 25.9468 34.7413 27.1601 34.2388C28.3733 33.7362 29.4757 32.9997 30.4043 32.0711C31.3329 31.1425 32.0695 30.0401 32.572 28.8268C33.0746 27.6136 33.3333 26.3132 33.3333 25V20" stroke="white" stroke-width="2" stroke-linecap="round" stroke-linejoin="round"/>
<path d="M18.3333 5V8.33333" stroke="white" stroke-width="2" stroke-linecap="round" stroke-linejoin="round"/>
<path d="M10 5V8.33333" stroke="white" stroke-width="2" stroke-linecap="round" stroke-linejoin="round"/>
<path d="M33.3333 19C35.1743 19 36.6667 17.5077 36.6667 15.6667C36.6667 13.8258 35.1743 12.3334 33.3333 12.3334C31.4924 12.3334 30 13.8258 30 15.6667C30 17.5077 31.4924 19 33.3333 19Z" stroke="white" stroke-width="2" stroke-linecap="round" stroke-linejoin="round"/>
</svg>
